<?xml version="1.0" standalone="no"?>
<!DOCTYPE svg PUBLIC "-//W3C//DTD SVG 20010904//EN"
 "http://www.w3.org/TR/2001/REC-SVG-20010904/DTD/svg10.dtd">
<svg version="1.0" xmlns="http://www.w3.org/2000/svg"
 width="735.000000pt" height="458.000000pt" viewBox="0 0 735.000000 458.000000"
 preserveAspectRatio="xMidYMid meet">

<g transform="translate(0.000000,458.000000) scale(0.100000,-0.100000)"
fill="#000000" stroke="none">
<path d="M4680 3241 c0 -34 -53 -140 -94 -187 -49 -57 -131 -111 -194 -127
l-53 -13 55 -17 c67 -21 161 -84 199 -131 38 -49 77 -129 84 -173 l6 -36 17
57 c42 134 156 248 287 287 l42 12 -63 21 c-119 40 -221 145 -265 271 -12 35
-20 50 -21 36z"/>
<path d="M4974 2637 c-35 -32 -39 -40 -39 -86 0 -41 5 -55 29 -80 52 -54 127
-53 178 1 23 25 28 39 28 79 0 70 -37 110 -107 116 -47 5 -53 3 -89 -30z"/>
<path d="M6299 2655 c-37 -20 -59 -58 -59 -101 0 -49 26 -89 72 -110 68 -30
141 6 157 79 9 39 -9 103 -28 99 -7 -1 -10 2 -7 7 10 16 -36 41 -74 41 -19 -1
-47 -7 -61 -15z"/>
<path d="M3760 2244 c-66 -26 -123 -61 -160 -99 -24 -25 -40 -45 -36 -45 5 0
1 -12 -9 -26 -15 -23 -15 -27 -1 -43 9 -10 13 -20 10 -24 -3 -3 0 -12 7 -20
11 -12 19 -7 47 31 20 25 53 52 76 63 74 34 216 18 253 -29 45 -55 56 -104 61
-262 4 -128 7 -149 16 -120 l10 35 5 -30 c4 -27 5 -26 11 15 6 40 7 35 10 -35
1 -44 5 -70 7 -58 3 18 10 21 38 20 44 -3 48 -8 56 -70 4 -30 7 23 8 129 1
201 11 254 61 322 44 62 101 95 169 100 104 8 174 -27 208 -104 15 -33 19 -83
23 -329 3 -159 7 -266 8 -237 2 57 16 67 47 32 14 -15 15 -20 4 -21 -8 0 -6
-4 6 -9 32 -14 34 -12 38 33 l4 42 1 -42 c2 -51 19 -57 25 -10 4 30 4 29 5 -7
2 -30 5 -37 13 -29 8 8 12 97 13 285 l1 273 -27 75 c-33 91 -98 158 -178 185
-80 26 -219 18 -290 -17 -56 -28 -99 -63 -140 -115 -21 -27 -23 -27 -34 -9
-27 46 -83 99 -130 124 -41 20 -68 26 -136 29 -47 1 -92 0 -100 -3z m-156
-135 c-11 -5 -13 -8 -5 -8 8 -1 12 -4 8 -7 -10 -10 -26 6 -21 21 3 8 12 11 22
8 13 -6 13 -8 -4 -14z m-24 -49 c0 -5 -4 -10 -10 -10 -5 0 -10 5 -10 10 0 6 5
10 10 10 6 0 10 -4 10 -10z m28 -36 c-24 -41 -34 -39 -17 2 7 16 12 32 11 36
-1 4 5 5 12 2 12 -5 11 -12 -6 -40z m509 -400 c-7 -8 -47 33 -47 48 0 5 12 -2
27 -16 15 -14 24 -28 20 -32z"/>
<path d="M5653 2236 c-50 -16 -96 -47 -145 -98 -20 -21 -39 -38 -42 -38 -3 0
-6 27 -6 60 l0 60 -80 0 -80 0 1 -387 c1 -214 3 -380 6 -370 5 20 29 23 36 5
3 -7 6 -3 6 10 1 13 5 20 11 17 6 -3 10 -1 10 5 0 7 7 10 15 6 8 -3 15 -2 15
3 0 4 11 6 25 3 21 -4 25 -10 27 -46 1 -22 5 60 8 184 7 248 12 276 71 355 21
28 54 55 86 71 45 22 63 26 120 22 86 -5 139 -30 177 -86 26 -37 30 -52 34
-132 3 -55 8 -87 14 -84 6 4 8 -2 3 -15 -3 -11 -2 -29 4 -38 9 -15 10 -13 11
15 0 17 4 32 9 32 5 0 7 -10 5 -22 -4 -22 -4 -22 5 -2 11 26 58 64 78 64 8 0
13 6 12 13 -1 6 -1 21 0 31 2 34 15 6 22 -47 6 -44 7 -40 4 23 -5 167 -18 216
-77 292 -56 72 -147 108 -268 107 -41 0 -94 -6 -117 -13z"/>
<path d="M3390 2210 c-13 -8 -13 -10 2 -10 11 0 21 -12 27 -32 5 -18 10 -25
10 -15 1 10 -4 27 -9 38 -10 17 -7 19 22 18 31 -1 31 -2 8 -9 -25 -7 -25 -7 5
-11 18 -2 29 -9 27 -17 -4 -19 30 -72 45 -72 9 0 13 18 13 60 l0 60 -67 0
c-38 0 -75 -5 -83 -10z"/>
<path d="M4972 1783 c1 -241 3 -420 5 -399 3 22 11 49 19 60 13 19 14 17 16
-24 l1 -45 7 45 c4 26 8 34 9 20 1 -20 3 -22 11 -10 5 8 10 11 10 6 0 -6 7 -1
15 10 10 13 17 16 22 7 9 -12 37 3 40 22 0 6 4 175 7 378 l7 367 -86 0 -85 0
2 -437z m15 -315 c-3 -8 -6 -5 -6 6 -1 11 2 17 5 13 3 -3 4 -12 1 -19z"/>
<path d="M6281 2129 l1 -91 22 21 c18 19 19 23 6 32 -13 9 -13 10 0 8 31 -3
39 2 61 41 16 29 25 37 32 28 5 -9 7 -3 4 15 -2 15 0 27 4 27 10 0 17 -27 22
-85 2 -22 4 -11 3 25 l-1 65 -78 3 -78 3 2 -92z"/>
<path d="M6432 2050 c0 -19 2 -27 5 -17 2 9 2 25 0 35 -3 9 -5 1 -5 -18z"/>
<path d="M3540 1999 c0 -4 7 -22 15 -40 8 -19 14 -27 14 -19 0 14 -28 72 -29
59z"/>
<path d="M3541 1864 c0 -11 3 -14 6 -6 3 7 2 16 -1 19 -3 4 -6 -2 -5 -13z"/>
<path d="M4042 1615 c0 -16 2 -22 5 -12 2 9 2 23 0 30 -3 6 -5 -1 -5 -18z"/>
</g>
</svg>
